<svg id="ff813ce3-c12b-48b4-8431-23ca0a877a50" data-name="b7fbf1b4-8def-4952-b3fc-1ac0195ad990" xmlns="http://www.w3.org/2000/svg" viewBox="0 0 221.84 230.71"><defs><style>.b7a587b9-f391-4511-a216-68ee89ce13d5{fill:#2d2f7a;}</style></defs><path id="a55746b9-e149-418a-9974-d432d26ad5e1" data-name="b2c78f5d-d5ae-456b-adcf-18a42dae742a" class="b7a587b9-f391-4511-a216-68ee89ce13d5" d="M162.22,99.77H150.59v10.56h11.63a18.32,18.32,0,0,1,0,36.64H78.79a18.32,18.32,0,0,1,0-36.64h40.9v8l23-13.27-23-13.27v8H78.79a28.88,28.88,0,1,0,0,57.76h83.47a28.88,28.88,0,0,0,0-57.76h0Z" transform="translate(-9.58 -9.14)"/><g id="b258204d-1cfa-46f8-9b45-88986fa9b081" data-name="b33ec0c3-129e-447e-9974-768bb99f888f"><polygon class="b7a587b9-f391-4511-a216-68ee89ce13d5" points="7.86 35.6 31.54 35.6 31.54 29.1 7.86 29.1 7.86 9.85 32.89 9.85 32.89 3.25 0 3.25 0 64.16 34.25 64.16 34.25 57.56 7.86 57.56 7.86 35.6"/><rect class="b7a587b9-f391-4511-a216-68ee89ce13d5" x="43.28" width="7.95" height="64.16"/><path class="b7a587b9-f391-4511-a216-68ee89ce13d5" d="M104,46.46c0-8.77-3.25-17.89-16.63-17.89A27.21,27.21,0,0,0,73,32.41l1.81,5.24a21.85,21.85,0,0,1,11.4-3.24c9,0,9.94,6.51,9.94,10.12v.9c-16.94,0-26.31,5.73-26.31,16.3,0,6.33,4.52,12.56,13.37,12.56a16.29,16.29,0,0,0,13.37-6.51h.27l.63,5.51h7.23A61.27,61.27,0,0,1,104,62.81ZM96.32,58.57a8.36,8.36,0,0,1-.45,2.53A10.87,10.87,0,0,1,85.3,68.41c-4.07,0-7.5-2.44-7.5-7.59,0-8.49,9.85-10,18.52-9.85Z" transform="translate(-9.58 -9.14)"/><path class="b7a587b9-f391-4511-a216-68ee89ce13d5" d="M130,47.91c-5.69-2.17-8.31-3.8-8.31-7.41,0-3.25,2.62-6,7.32-6a17,17,0,0,1,9,2.5l2-5.78a21.9,21.9,0,0,0-10.77-2.68c-9.4,0-15.09,5.78-15.09,12.83,0,5.24,3.71,9.58,11.57,12.38,5.87,2.17,8.13,4.25,8.13,8s-2.71,6.51-8.49,6.51a20.83,20.83,0,0,1-10.48-3.16l-2,6.05a24.85,24.85,0,0,0,12.29,3c10.39,0,16.36-5.42,16.36-13.1C141.5,54.6,137.62,50.8,130,47.91Z" transform="translate(-9.58 -9.14)"/><path class="b7a587b9-f391-4511-a216-68ee89ce13d5" d="M160.39,17l-7.77,2.08V29.57h-6.78v6h6.78V59.48c0,5.15.81,9,3.07,11.39,1.9,2.17,4.88,3.34,8.59,3.34a19.39,19.39,0,0,0,7-1.08l-.36-6a17.06,17.06,0,0,1-4.61.54c-4.43,0-6-3.07-6-8.49V35.62H171.7v-6H160.39Z" transform="translate(-9.58 -9.14)"/><path class="b7a587b9-f391-4511-a216-68ee89ce13d5" d="M183.79,12.31a4.85,4.85,0,0,0-5,4.68v.32a4.74,4.74,0,0,0,4.58,4.88h.21c3.16,0,5.15-2.17,5.06-4.88a4.72,4.72,0,0,0-4.42-5h-.43Z" transform="translate(-9.58 -9.14)"/><rect class="b7a587b9-f391-4511-a216-68ee89ce13d5" x="170.24" y="20.42" width="7.95" height="43.74"/><path class="b7a587b9-f391-4511-a216-68ee89ce13d5" d="M220.12,67.88c-8.67,0-15.18-6.24-15.18-16.36,0-9.13,5.42-16.54,15.45-16.54a18.46,18.46,0,0,1,9.22,2.08l1.81-6.14a26.5,26.5,0,0,0-11-2.26c-14.28,0-23.49,9.76-23.49,23.22s8.58,22.32,21.78,22.32a29.27,29.27,0,0,0,12.51-2.52l-1.36-6A22.48,22.48,0,0,1,220.12,67.88Z" transform="translate(-9.58 -9.14)"/></g><g id="b9a87388-299e-4551-af78-daad8ea3b9b7" data-name="a23d8d30-a99d-4df9-9b6f-98baeeccae8a"><polygon class="b7a587b9-f391-4511-a216-68ee89ce13d5" points="24.49 201.15 48.16 201.15 48.16 194.64 24.49 194.64 24.49 175.4 49.52 175.4 49.52 168.8 16.63 168.8 16.63 229.7 50.87 229.7 50.87 223.11 24.49 223.11 24.49 201.15"/><path class="b7a587b9-f391-4511-a216-68ee89ce13d5" d="M117.56,194.12a15,15,0,0,0-9.67,3.07,18.16,18.16,0,0,0-4.88,5.69h-.18a12.93,12.93,0,0,0-12.38-8.76c-7.23,0-11.3,3.89-13.74,8h-.27l-.36-7h-7c.27,3.61.36,7.32.36,11.84v31.9h7.78v-26.4a11,11,0,0,1,.63-3.89c1.27-4,4.88-8,9.85-8,6,0,9.13,5.06,9.13,12v26.21h7.77v-27a12.92,12.92,0,0,1,.63-4c1.36-3.89,4.88-7.23,9.4-7.23,6.42,0,9.49,5.06,9.49,13.46v24.76h7.77V213.09C131.93,197.91,123.34,194.12,117.56,194.12Z" transform="translate(-9.58 -9.14)"/><path class="b7a587b9-f391-4511-a216-68ee89ce13d5" d="M174.67,212c0-8.77-3.25-17.89-16.63-17.89A27.23,27.23,0,0,0,143.67,198l1.81,5.24A21.84,21.84,0,0,1,156.87,200c8.95,0,9.94,6.51,9.94,10.12v.9c-16.9-.09-26.3,5.69-26.3,16.27,0,6.33,4.52,12.56,13.37,12.56a16.28,16.28,0,0,0,13.34-6.52h.27l.63,5.51h7.23a61.28,61.28,0,0,1-.72-10.48ZM167,224.12a8.36,8.36,0,0,1-.45,2.53A10.87,10.87,0,0,1,156,234c-4.07,0-7.5-2.44-7.5-7.59,0-8.49,9.85-10,18.52-9.85Z" transform="translate(-9.58 -9.14)"/><path class="b7a587b9-f391-4511-a216-68ee89ce13d5" d="M190.57,177.85a4.85,4.85,0,0,0-5,4.68v.32a4.74,4.74,0,0,0,4.58,4.88h.21c3.16,0,5.15-2.17,5.06-4.88a4.72,4.72,0,0,0-4.42-5h-.43Z" transform="translate(-9.58 -9.14)"/><rect class="b7a587b9-f391-4511-a216-68ee89ce13d5" x="177.02" y="185.97" width="7.95" height="43.74"/><rect class="b7a587b9-f391-4511-a216-68ee89ce13d5" x="197.26" y="165.55" width="7.95" height="64.16"/></g></svg>